<!DOCTYPE svg PUBLIC "-//W3C//DTD SVG 20010904//EN" "http://www.w3.org/TR/2001/REC-SVG-20010904/DTD/svg10.dtd">
<svg version="1.0" xmlns="http://www.w3.org/2000/svg" width="665px" height="396px" viewBox="0 0 6650 3960" preserveAspectRatio="xMidYMid meet"><g fill="#020202" stroke="none">
 <path d="M2730 2596 c0 -74 21 -135 146 -415 96 -217 113 -261 99 -261 -3 0 -70 55 -148 123 -353 304 -636 510 -721 524 -78 12 -117 -40 -97 -132 17 -76 70 -179 218 -426 72 -119 143 -247 158 -285 86 -209 -17 -314 -252 -259 -138 32 -291 123 -408 241 -92 93 -135 172 -135 249 0 66 9 86 63 143 57 58 26 53 -33 -6 -60 -60 -78 -113 -62 -191 21 -101 105 -213 225 -303 157 -116 318 -178 462 -178 84 0 118 18 172 88 28 37 33 52 33 97 0 107 -42 206 -218 514 -112 196 -157 292 -168 359 -6 37 -4 42 19 53 55 25 237 -98 613 -412 115 -96 250 -213 300 -262 67 -64 96 -85 109 -81 29 11 11 73 -51 170 -60 96 -227 424 -264 520 -13 32 -26 86 -29 118 -8 80 -31 89 -31 12z"/>
 <path d="M2830 2585 c0 -2 29 -51 64 -108 81 -131 138 -243 145 -285 5 -28 15 -38 63 -65 31 -17 60 -28 64 -24 4 3 -26 55 -66 114 -47 70 -68 109 -60 111 7 3 32 -16 54 -40 47 -52 140 -131 208 -176 51 -35 128 -45 128 -18 0 21 -27 38 -49 31 -29 -9 -124 44 -208 115 -70 58 -148 148 -222 255 -23 33 -57 68 -74 77 -33 18 -47 22 -47 13z"/>
 <path d="M3373 2565 c-84 -36 -69 -122 75 -415 49 -98 71 -117 96 -77 9 14 6 26 -12 60 -95 170 -166 325 -166 362 -1 40 -1 40 36 39 43 -1 135 -46 223 -107 52 -37 62 -49 81 -104 44 -122 157 -268 269 -349 80 -57 116 -70 147 -53 36 19 47 40 48 86 0 35 -6 48 -34 77 -19 19 -57 41 -85 51 -28 9 -51 18 -51 21 0 2 42 4 93 4 l94 0 28 -72 c84 -220 293 -600 441 -806 105 -145 294 -331 407 -401 280 -173 568 -158 766 38 95 95 116 142 116 261 0 80 -4 103 -24 145 -32 66 -165 197 -266 264 -269 177 -843 385 -1327 481 -50 10 -58 15 -67 42 -6 17 -9 34 -6 37 3 2 27 -6 53 -19 67 -35 71 -35 33 -1 -19 17 -49 36 -67 41 -28 10 -34 18 -45 63 -8 29 -14 89 -14 134 0 73 3 84 24 107 48 51 143 28 239 -58 71 -65 66 -43 -6 26 -75 72 -132 101 -198 102 -59 1 -88 -18 -110 -71 -18 -42 -18 -152 0 -228 8 -33 14 -60 13 -61 -1 -1 -80 1 -176 4 l-173 5 -39 60 c-22 33 -39 70 -39 81 0 12 -7 30 -15 40 -24 31 -19 100 8 132 32 37 89 35 193 -6 111 -44 112 -44 84 -20 -37 32 -133 79 -178 86 -69 11 -140 -38 -157 -109 -4 -15 -11 -27 -15 -27 -4 0 -27 14 -51 32 -55 40 -190 118 -204 118 -5 -1 -24 -7 -42 -15z m644 -445 c74 -37 125 -91 121 -128 -7 -59 -75 -32 -189 76 -43 41 -79 79 -79 84 0 18 81 0 147 -32z m533 -126 c321 -81 682 -214 900 -331 205 -110 377 -259 435 -377 39 -81 40 -170 1 -249 -51 -105 -193 -209 -324 -236 -319 -66 -615 131 -953 638 -102 152 -319 560 -319 599 0 18 35 12 260 -44z"/>
 <path d="M3517 1983 c-16 -15 -5 -41 31 -76 21 -20 45 -37 54 -37 23 0 41 26 33 49 -14 44 -95 88 -118 64z"/>
 </g>

</svg>